<?xml version="1.0" encoding="utf-8"?>
<!-- Generator: Adobe Illustrator 21.0.2, SVG Export Plug-In . SVG Version: 6.00 Build 0)  -->
<svg version="1.1" id="Layer_1" xmlns="http://www.w3.org/2000/svg" xmlns:xlink="http://www.w3.org/1999/xlink" x="0px" y="0px"
	 viewBox="0 0 245.8 26.5" style="enable-background:new 0 0 245.8 26.5;" xml:space="preserve">
<style type="text/css">
	.st0{fill:#3386FF;}
	.st1{fill:#2271BF;}
	.st2{fill:#5FA8FF;}
	.st3{fill:#174884;}
</style>
<g>
	<path class="st0" d="M130.7,15.5c-0.7-0.4-1.5-0.5-2.3-0.6c-0.7,0-1.7-0.4-1.7-1.7c0-0.9,0.7-1.6,1.7-1.7c0.8,0,1.6-0.1,2.3-0.6
		c2-1.2,2.7-3.7,1.5-5.7c-1.2-2-3.7-2.7-5.7-1.5c-1.3,0.7-2.1,2.1-2.1,3.6c0,0.8,0.3,1.6,0.7,2.2c0.3,0.6,0.5,1.7-0.6,2.3
		c-0.8,0.5-1.8,0.2-2.3-0.6c-0.4-0.7-0.9-1.3-1.6-1.7c-2-1.2-4.6-0.5-5.7,1.5s-0.5,4.6,1.5,5.7c1.3,0.7,2.9,0.7,4.2,0
		c0.7-0.4,1.2-1,1.6-1.7c0.3-0.5,1.2-1.2,2.3-0.6c0.8,0.5,1,1.5,0.6,2.3c-0.4,0.7-0.7,1.4-0.7,2.2c0,2.3,1.9,4.2,4.2,4.2
		c2.3,0,4.2-1.9,4.2-4.2C132.8,17.6,132,16.2,130.7,15.5z"/>
	<path class="st0" d="M180.9,22.4c0,0-0.1,0-0.1-0.1c-4.1-2.4-7.2-6.3-8.4-11.1c-0.2-0.7-0.3-1.5-0.5-2.3c-0.1-0.8-0.2-1.6-0.2-2.3
		c0-0.1,0-0.1,0.1-0.2c1.5-0.9,3.2-1.5,4.9-1.9c0.6-0.1,1.3-0.3,1.9-0.3c0.9-0.1,1.8-0.2,2.7-0.1c0.5,0,1,0,1.5,0.1
		c2.5,0.3,4.9,1,7.1,2.3c0,0,0.1,0,0.1,0.1c0,0,0.1,0,0.1,0.1c0,0,0,0.1,0,0.1c0,0.5,0,0.9-0.1,1.4c-0.1,0.6-0.1,1.3-0.3,1.9
		c-0.3,1.4-0.7,2.7-1.2,4c-0.9,2-2.1,3.8-3.7,5.4c-1.1,1.1-2.4,2.1-3.7,2.9C181,22.3,180.9,22.4,180.9,22.4z M172.5,7.1
		c0,0,0,0.1,0,0.1c0,0.6,0,1.3,0.1,1.9c0.1,0.6,0.2,1.1,0.3,1.7c0,0.1,0.1,0.2,0.1,0.3c0.8,1.7,2.6,2.6,4.4,2.1
		c1.4-0.3,2.5-1.4,2.9-2.7c0.1-0.4,0.1-0.8,0.2-1.1c0-0.3,0-0.5,0.1-0.8c0.3-1.5,1.3-2.8,2.8-3.4c0.1,0,0.2-0.1,0.2-0.1c0,0,0,0,0,0
		c-0.2-0.1-1.6-0.2-2.4-0.2c-1.7,0-3.5,0.2-5.1,0.7C174.8,6,173.7,6.5,172.5,7.1z M185.4,17.6C185.5,17.6,185.5,17.5,185.4,17.6
		c0.4-0.5,0.8-1,1.1-1.5c1.1-1.7,1.9-3.5,2.3-5.5c0.1-0.7,0.2-1.3,0.3-2c0-0.5,0.1-0.9,0.1-1.4c0,0,0-0.1,0-0.1c0,0-0.1-0.1-0.1-0.1
		c-0.4-0.2-0.7-0.4-1.1-0.6c-0.5-0.3-1.1-0.5-1.7-0.7c-0.7-0.2-1.4-0.2-2.1-0.1c-2,0.5-3.3,2.4-2.9,4.5c0.2,1.1,0.8,2,1.8,2.6
		c0.1,0,0.1,0.1,0.2,0.1c0.7,0.4,1.3,1,1.7,1.7c0.4,0.8,0.6,1.6,0.6,2.5C185.5,17.3,185.4,17.4,185.4,17.6z M180.9,21.5
		c0,0,0.1,0,0.1-0.1c1.1-0.6,2.1-1.4,3-2.3c0.1-0.1,0.1-0.1,0.1-0.2c0.1-0.1,0.1-0.2,0.2-0.4c0.4-0.9,0.5-1.9,0.2-2.8
		c-0.6-1.9-2.4-3-4.2-2.7c-0.5,0.1-1,0.2-1.5,0.5c-0.9,0.5-1.8,0.7-2.8,0.6c-0.5,0-1-0.2-1.4-0.4c-0.4-0.2-0.7-0.4-1-0.6
		c0,0,0,0-0.1-0.1c0,0,0,0.1,0,0.1c0.4,1,0.9,1.9,1.4,2.8c0.6,1,1.3,1.9,2.1,2.7c0.8,0.8,1.7,1.6,2.6,2.2
		C180.3,21.2,180.7,21.4,180.9,21.5z"/>
	<path class="st0" d="M16.7,8.5c-0.3-2.7-2.6-3.6-5.6-3.9l0-3.8l-2.3,0l0,3.7c-0.6,0-1.2,0-1.8,0l0-3.7l-2.3,0l0,3.8
		c-0.5,0-1,0-1.5,0l0,0L0,4.6L0,7c0,0,1.7,0,1.7,0C2.6,7,2.9,7.6,3,8l0,4.3c0.1,0,0.1,0,0.2,0c-0.1,0-0.2,0-0.2,0l0,6
		c0,0.3-0.2,0.8-0.9,0.8c0,0-1.7,0-1.7,0L0,21.9l3,0c0.6,0,1.1,0,1.6,0l0,3.8l2.3,0l0-3.8c0.6,0,1.2,0,1.8,0l0,3.8l2.3,0l0-3.8
		c3.9-0.2,6.6-1.2,6.9-4.8c0.3-2.9-1.1-4.2-3.3-4.8C16,11.7,16.9,10.5,16.7,8.5z M13.5,16.6c0,2.9-4.9,2.5-6.5,2.5l0-5.1
		C8.6,14.1,13.5,13.7,13.5,16.6z M12.4,9.5c0,2.6-4.1,2.3-5.4,2.3l0-4.6C8.3,7.2,12.4,6.8,12.4,9.5z"/>
	<g>
		<polygon class="st1" points="66.3,0 66.1,0.6 66.1,18.1 66.3,18.3 74.4,13.5 		"/>
		<polygon class="st2" points="66.3,0 58.2,13.5 66.3,18.3 66.3,9.8 		"/>
		<polygon class="st1" points="66.3,19.9 66.2,20 66.2,26.2 66.3,26.5 74.4,15 		"/>
		<polygon class="st2" points="66.3,26.5 66.3,19.9 58.2,15 		"/>
		<polygon class="st3" points="66.3,18.3 74.4,13.5 66.3,9.8 		"/>
		<polygon class="st0" points="58.2,13.5 66.3,18.3 66.3,9.8 		"/>
	</g>
	<polygon class="st0" points="237.2,18.4 238.4,14.1 240.7,13.2 241.3,10.9 239,11.8 240.8,4.9 235.4,4.9 233.1,14 231,14.7 
		230.4,17 232.5,16.3 231.1,21.7 245,21.7 245.8,18.4 	"/>
</g>
</svg>
