<?xml version="1.0" encoding="utf-8"?>
<!-- Generator: Adobe Illustrator 21.0.2, SVG Export Plug-In . SVG Version: 6.00 Build 0)  -->
<svg version="1.1" id="Layer_1" xmlns="http://www.w3.org/2000/svg" xmlns:xlink="http://www.w3.org/1999/xlink" x="0px" y="0px"
	 viewBox="0 0 17.9 24.9" style="enable-background:new 0 0 17.9 24.9;" xml:space="preserve">
<style type="text/css">
	.st0{fill:#C7E4FF;}
</style>
<path class="st0" d="M16.7,7.7c-0.3-2.7-2.6-3.6-5.6-3.9V0H8.8v3.7c-0.6,0-1.2,0-1.8,0V0H4.7v3.8c-0.5,0-1,0-1.5,0l0,0H0v2.4h1.7
	c0.9,0,1.2,0.6,1.3,1v4.3c0.1,0,0.1,0,0.2,0c-0.1,0-0.2,0-0.2,0v6c0,0.3-0.2,0.8-0.9,0.8H0.4L0,21.1h3c0.6,0,1.1,0,1.6,0v3.8h2.3
	v-3.8c0.6,0,1.2,0,1.8,0v3.8H11v-3.8c3.9-0.2,6.6-1.2,6.9-4.8c0.3-2.9-1.1-4.2-3.3-4.8C16,10.9,16.9,9.7,16.7,7.7z M13.5,15.8
	c0,2.9-4.9,2.5-6.5,2.5v-5.1C8.6,13.3,13.5,12.9,13.5,15.8z M12.4,8.7c0,2.6-4.1,2.3-5.4,2.3V6.4C8.3,6.4,12.4,6,12.4,8.7z"/>
</svg>
