<?xml version="1.0" encoding="utf-8"?>
<!-- Generator: Adobe Illustrator 21.0.2, SVG Export Plug-In . SVG Version: 6.00 Build 0)  -->
<svg version="1.1" id="Layer_1" xmlns="http://www.w3.org/2000/svg" xmlns:xlink="http://www.w3.org/1999/xlink" x="0px" y="0px"
	 viewBox="0 0 290.4 55.7" style="enable-background:new 0 0 290.4 55.7;" xml:space="preserve">
<g>
	<path d="M30.3,6.6v21.1h-5.8V6.6H17v-5h20.6v5H30.3z"/>
	<path d="M59.2,17.7c0,2.9-1,5.4-3,7.4c-2,2-4.6,3-7.6,3S43,27,41,25c-2-2-3-4.4-3-7.4s1-5.4,3-7.4c2-2,4.6-3,7.6-3s5.6,1,7.6,3
		C58.2,12.3,59.2,14.8,59.2,17.7z M43.6,17.7c0,1.6,0.5,3,1.4,4s2.1,1.5,3.6,1.5c1.5,0,2.7-0.5,3.6-1.5s1.4-2.4,1.4-4s-0.5-3-1.4-4
		s-2.1-1.6-3.6-1.6c-1.5,0-2.7,0.5-3.6,1.6S43.6,16,43.6,17.7z"/>
	<path d="M69,27.7h-5.6V0H69v14.2l6.2-6.7h7.1l-7.7,8.1l8,12h-6.7L70.8,20L69,21.9V27.7z"/>
	<path d="M103,24.8c-2.3,2.1-4.9,3.2-8,3.2s-5.6-0.9-7.6-2.8c-2-1.9-3-4.4-3-7.6s1-5.7,3-7.5c2-1.9,4.4-2.8,7.2-2.8s5.1,0.8,7,2.5
		c1.9,1.7,2.9,4,2.9,6.9v3H90c0.2,1.1,0.7,2,1.7,2.7c1,0.7,2.1,1,3.3,1c2,0,3.6-0.7,4.9-2L103,24.8z M97.6,12.9
		c-0.8-0.6-1.7-1-2.8-1c-1.1,0-2.1,0.3-3,1c-0.9,0.7-1.5,1.6-1.6,2.7H99C98.8,14.5,98.4,13.5,97.6,12.9z"/>
	<path d="M114.3,16.5v11.2h-5.6V7.6h5.6v2.2c1.7-1.7,3.6-2.6,5.7-2.6c2.1,0,3.9,0.7,5.3,2.2c1.4,1.5,2.1,3.5,2.1,6v12.2h-5.6V16.4
		c0-3.1-1.1-4.6-3.4-4.6c-1.1,0-2.1,0.4-2.9,1.2C114.7,13.8,114.3,14.9,114.3,16.5z"/>
	<path d="M149.1,6.8c-0.6,0.5-0.8,1.1-0.8,1.8s0.3,1.4,1,1.8c0.7,0.4,2.3,1,4.7,1.6c2.5,0.6,4.4,1.5,5.8,2.7c1.4,1.2,2.1,3,2.1,5.3
		c0,2.3-0.9,4.2-2.6,5.7s-4.1,2.2-6.9,2.2c-4.1,0-7.9-1.5-11.2-4.6l3.5-4.3c2.8,2.5,5.4,3.7,7.8,3.7c1.1,0,1.9-0.2,2.5-0.7
		s0.9-1.1,0.9-1.9c0-0.8-0.3-1.4-1-1.9c-0.6-0.5-1.9-0.9-3.8-1.4c-3-0.7-5.3-1.7-6.7-2.8s-2.1-3-2.1-5.5c0-2.5,0.9-4.4,2.7-5.7
		c1.8-1.3,4-2,6.7-2c1.7,0,3.5,0.3,5.2,0.9s3.3,1.4,4.6,2.5l-3,4.3c-2.3-1.7-4.6-2.6-7-2.6C150.4,6.1,149.6,6.4,149.1,6.8z"/>
	<path d="M177.9,7.3c2.3,0,4.4,1,6.3,2.9c1.8,2,2.7,4.4,2.7,7.4S186,23,184.2,25c-1.8,2-4,3-6.4,3s-4.4-1-5.9-3V35h-5.6V7.6h5.6v2.2
		C173.6,8.1,175.6,7.3,177.9,7.3z M171.8,17.7c0,1.6,0.5,3,1.4,4s2,1.5,3.3,1.5s2.4-0.5,3.4-1.5c1-1,1.5-2.4,1.5-4
		c0-1.6-0.5-3-1.4-4.1c-0.9-1.1-2.1-1.6-3.4-1.6c-1.3,0-2.4,0.5-3.3,1.6C172.2,14.7,171.8,16.1,171.8,17.7z"/>
	<path d="M201.7,12.6c-1.7,0-2.9,0.6-3.7,1.8c-0.8,1.2-1.2,2.7-1.2,4.7v8.7h-5.6V7.6h5.6v2.7c0.7-0.8,1.6-1.5,2.7-2.1
		c1.1-0.6,2.2-0.9,3.3-0.9l0,5.3H201.7z"/>
	<path d="M223.9,24.8c-2.3,2.1-4.9,3.2-8,3.2s-5.6-0.9-7.6-2.8c-2-1.9-3-4.4-3-7.6s1-5.7,3-7.5c2-1.9,4.4-2.8,7.2-2.8s5.1,0.8,7,2.5
		c1.9,1.7,2.9,4,2.9,6.9v3h-14.6c0.2,1.1,0.7,2,1.7,2.7c1,0.7,2.1,1,3.3,1c2,0,3.6-0.7,4.9-2L223.9,24.8z M218.5,12.9
		c-0.8-0.6-1.7-1-2.8-1c-1.1,0-2.1,0.3-3,1c-0.9,0.7-1.5,1.6-1.6,2.7h8.8C219.7,14.5,219.3,13.5,218.5,12.9z"/>
	<path d="M246.6,27.7h-5.3v-2.4c-1.4,1.8-3.2,2.7-5.4,2.7c-2.1,0-3.9-0.6-5.4-1.8c-1.4-1.2-2.2-2.9-2.2-4.9s0.7-3.6,2.2-4.6
		c1.5-1,3.5-1.5,6.1-1.5h4.2V15c0-2.1-1.1-3.2-3.4-3.2c-1,0-2,0.2-3.1,0.6c-1.1,0.4-2,0.9-2.7,1.4l-2.5-3.6c2.6-1.9,5.7-2.9,9-2.9
		c2.4,0,4.4,0.6,6,1.8c1.5,1.2,2.3,3.2,2.3,5.8V27.7z M241,20.1v-1h-3.5c-2.2,0-3.4,0.7-3.4,2.1c0,0.7,0.3,1.3,0.8,1.7
		c0.5,0.4,1.3,0.6,2.3,0.6s1.9-0.3,2.6-0.9C240.6,21.9,241,21.1,241,20.1z"/>
	<path d="M259.8,28c-2.4,0-4.5-1-6.4-3s-2.8-4.5-2.8-7.5s0.9-5.4,2.7-7.3s3.9-2.9,6.4-2.9c2.4,0,4.4,0.9,6,2.6V0h5.6v27.7h-5.6v-2.7
		C264.2,27,262.2,28,259.8,28z M256.3,17.7c0,1.6,0.5,2.9,1.5,4s2.1,1.5,3.4,1.5s2.4-0.5,3.3-1.5s1.4-2.4,1.4-4c0-1.6-0.5-3-1.4-4.1
		c-0.9-1.1-2-1.6-3.3-1.6s-2.5,0.5-3.4,1.6C256.7,14.7,256.3,16.1,256.3,17.7z"/>
</g>
<g>
	<path d="M7.6,45.2c-0.3-0.5-0.7-0.9-1.2-1.2c-0.5-0.3-1-0.4-1.6-0.4c-0.5,0-1,0.1-1.4,0.3c-0.4,0.2-0.8,0.5-1.1,0.9
		C2,45.1,1.8,45.6,1.6,46s-0.3,1-0.3,1.5c0,0.6,0.1,1.2,0.3,1.7s0.4,0.9,0.7,1.2C2.6,50.8,3,51,3.4,51.2c0.4,0.2,0.9,0.3,1.4,0.3
		c0.7,0,1.3-0.2,1.8-0.5c0.5-0.3,1-0.9,1.3-1.7l1.2,0.5c-0.2,0.5-0.5,0.9-0.9,1.4c-0.4,0.4-0.9,0.8-1.5,1.1c-0.6,0.3-1.2,0.4-2,0.4
		c-0.7,0-1.3-0.1-1.9-0.4c-0.6-0.3-1.1-0.6-1.5-1.1c-0.4-0.5-0.8-1-1-1.7S0,48.3,0,47.6c0-0.7,0.1-1.4,0.4-2c0.2-0.6,0.6-1.2,1-1.7
		c0.4-0.5,0.9-0.8,1.5-1.1c0.6-0.3,1.2-0.4,1.9-0.4c0.6,0,1.1,0.1,1.6,0.3c0.4,0.2,0.8,0.4,1.1,0.6c0.3,0.2,0.6,0.5,0.8,0.8H9v1.2
		H7.6z"/>
	<path d="M16.5,47.2h-1.3v-0.4c-0.1,0-0.3,0-0.4,0.1c-0.2,0.1-0.3,0.1-0.4,0.3c-0.1,0.1-0.2,0.3-0.3,0.4s-0.2,0.4-0.2,0.6v3.3H15
		v1.1h-3.4v-1.1h0.9l0-4.6h-1v-1.1h2.2v0.9c0.1-0.1,0.2-0.3,0.3-0.4c0.1-0.1,0.2-0.2,0.3-0.3c0.1-0.1,0.3-0.2,0.4-0.2
		s0.3-0.1,0.5-0.1c0.2,0,0.4,0,0.7,0s0.4,0,0.6,0V47.2z"/>
	<path d="M18.8,45.7h2.6v1.1h-0.8l1.6,4.4l1.7-4.4h-0.8v-1.1h2.6v1.1H25l-3.1,7.7h0.9v1.1h-2.8v-1.1h0.8l0.7-1.9l-2.3-5.8h-0.6V45.7
		z"/>
	<path d="M28.2,45.7h2.2v0.6c0.3-0.2,0.6-0.4,1-0.5c0.3-0.1,0.7-0.2,1.1-0.2c0.5,0,0.9,0.1,1.2,0.3c0.4,0.2,0.7,0.4,1,0.7
		c0.3,0.3,0.5,0.7,0.6,1.1s0.2,0.9,0.2,1.4c0,0.6-0.1,1.1-0.3,1.5c-0.2,0.5-0.4,0.8-0.7,1.2c-0.3,0.3-0.7,0.6-1.1,0.8
		c-0.4,0.2-0.9,0.3-1.4,0.3c-0.3,0-0.7,0-0.9-0.1c-0.3-0.1-0.5-0.2-0.8-0.3v2.2h1.1v1.1h-3.3v-1.1h0.9v-7.7h-1V45.7z M32,46.7
		c-0.3,0-0.6,0.1-0.9,0.2c-0.3,0.1-0.5,0.3-0.8,0.5v3.7c0.1,0.2,0.4,0.3,0.6,0.4c0.3,0.1,0.6,0.2,1,0.2c0.3,0,0.6-0.1,0.8-0.2
		c0.3-0.1,0.5-0.3,0.7-0.5c0.2-0.2,0.4-0.5,0.5-0.8c0.1-0.3,0.2-0.7,0.2-1.1c0-0.4-0.1-0.7-0.2-1s-0.3-0.6-0.5-0.8
		c-0.2-0.2-0.4-0.4-0.7-0.5C32.6,46.7,32.3,46.7,32,46.7z"/>
	<path d="M40.1,45.7h1.6v1H40l0,4c0,0.3,0,0.5,0.1,0.7c0.1,0.2,0.2,0.3,0.3,0.3c0.1,0.1,0.3,0.1,0.5,0.1c0.2,0,0.3,0,0.5,0
		c0.1,0,0.3-0.1,0.5-0.2l0.3,0.8c-0.2,0.1-0.4,0.2-0.7,0.3c-0.2,0.1-0.5,0.1-0.8,0.1c-0.3,0-0.6,0-0.8-0.1c-0.2-0.1-0.4-0.2-0.6-0.4
		c-0.2-0.2-0.3-0.4-0.3-0.7c-0.1-0.3-0.1-0.7-0.1-1.1l0-3.8h-1.1v-1h1.1v-1.6l1.2-0.6V45.7z"/>
	<path d="M44.4,49.2c0-0.5,0.1-1,0.3-1.5c0.2-0.4,0.4-0.8,0.7-1.2c0.3-0.3,0.7-0.6,1.1-0.7c0.4-0.2,0.9-0.3,1.4-0.3
		c0.5,0,1,0.1,1.4,0.3c0.4,0.2,0.8,0.4,1.1,0.7c0.3,0.3,0.5,0.7,0.7,1.1s0.3,0.9,0.3,1.5c0,0.5-0.1,1-0.3,1.5
		c-0.2,0.4-0.4,0.8-0.7,1.2c-0.3,0.3-0.7,0.6-1.1,0.8c-0.4,0.2-0.9,0.3-1.4,0.3c-0.5,0-1-0.1-1.4-0.3s-0.8-0.4-1.1-0.7
		s-0.5-0.7-0.7-1.2S44.4,49.7,44.4,49.2z M45.7,49.2c0,0.4,0.1,0.7,0.2,1.1c0.1,0.3,0.3,0.6,0.5,0.8c0.2,0.2,0.4,0.4,0.7,0.5
		c0.3,0.1,0.5,0.2,0.8,0.2c0.3,0,0.6-0.1,0.9-0.2c0.3-0.1,0.5-0.3,0.7-0.5c0.2-0.2,0.3-0.5,0.5-0.8c0.1-0.3,0.2-0.7,0.2-1.1
		c0-0.4-0.1-0.8-0.2-1.1c-0.1-0.3-0.3-0.6-0.5-0.8c-0.2-0.2-0.4-0.4-0.7-0.5s-0.6-0.2-0.9-0.2c-0.3,0-0.6,0.1-0.8,0.2
		c-0.3,0.1-0.5,0.3-0.7,0.5c-0.2,0.2-0.4,0.5-0.5,0.8C45.8,48.4,45.7,48.8,45.7,49.2z"/>
	<path d="M62.1,47.1c-0.1-0.1-0.2-0.2-0.3-0.3c-0.1-0.1-0.3-0.1-0.5-0.2c-0.2,0-0.3-0.1-0.5-0.1c-0.2,0-0.3,0-0.5,0.1
		c-0.1,0-0.3,0.1-0.4,0.2c-0.1,0.1-0.2,0.2-0.2,0.3s-0.1,0.2-0.1,0.4c0,0.2,0.1,0.4,0.2,0.5c0.1,0.1,0.4,0.3,0.7,0.4l1.3,0.5
		c0.6,0.2,1,0.4,1.2,0.8c0.3,0.3,0.4,0.7,0.4,1.2c0,0.3-0.1,0.6-0.2,0.8c-0.1,0.3-0.3,0.5-0.5,0.7s-0.5,0.3-0.8,0.4s-0.7,0.1-1,0.1
		c-0.5,0-1-0.1-1.3-0.3c-0.3-0.2-0.6-0.4-0.8-0.7h-0.7v-1.1h1.4c0,0.2,0,0.4,0.1,0.5c0.1,0.1,0.2,0.2,0.3,0.3
		c0.1,0.1,0.3,0.1,0.5,0.2c0.2,0,0.3,0.1,0.5,0.1c0.2,0,0.3,0,0.5-0.1c0.2,0,0.3-0.1,0.4-0.2c0.1-0.1,0.2-0.2,0.3-0.3
		s0.1-0.2,0.1-0.4c0-0.2-0.1-0.4-0.2-0.6c-0.1-0.2-0.4-0.3-0.7-0.4L60,49.4c-0.5-0.2-0.9-0.4-1.2-0.7c-0.3-0.3-0.4-0.7-0.4-1.1
		c0-0.3,0.1-0.6,0.2-0.8c0.1-0.2,0.3-0.5,0.5-0.6c0.2-0.2,0.5-0.3,0.8-0.4c0.3-0.1,0.6-0.2,1-0.2c0.5,0,0.9,0.1,1.2,0.2
		c0.3,0.1,0.6,0.4,0.9,0.7h0.6v1.1h-1.4C62.3,47.4,62.2,47.2,62.1,47.1z"/>
	<path d="M66,45.7h2.2v0.6c0.3-0.2,0.6-0.4,1-0.5c0.3-0.1,0.7-0.2,1.1-0.2c0.5,0,0.9,0.1,1.2,0.3c0.4,0.2,0.7,0.4,1,0.7
		c0.3,0.3,0.5,0.7,0.6,1.1s0.2,0.9,0.2,1.4c0,0.6-0.1,1.1-0.3,1.5s-0.4,0.8-0.7,1.2c-0.3,0.3-0.7,0.6-1.1,0.8
		c-0.4,0.2-0.9,0.3-1.4,0.3c-0.3,0-0.7,0-0.9-0.1s-0.5-0.2-0.8-0.3v2.2h1.1v1.1H66v-1.1h0.9v-7.7h-1V45.7z M69.8,46.7
		c-0.3,0-0.6,0.1-0.9,0.2s-0.5,0.3-0.8,0.5v3.7c0.1,0.2,0.4,0.3,0.6,0.4s0.6,0.2,1,0.2c0.3,0,0.6-0.1,0.8-0.2
		c0.3-0.1,0.5-0.3,0.7-0.5c0.2-0.2,0.4-0.5,0.5-0.8c0.1-0.3,0.2-0.7,0.2-1.1c0-0.4-0.1-0.7-0.2-1s-0.3-0.6-0.5-0.8
		c-0.2-0.2-0.4-0.4-0.7-0.5C70.4,46.7,70.1,46.7,69.8,46.7z"/>
	<path d="M80.8,47.2h-1.3v-0.4c-0.1,0-0.3,0-0.4,0.1c-0.2,0.1-0.3,0.1-0.4,0.3c-0.1,0.1-0.2,0.3-0.3,0.4s-0.2,0.4-0.2,0.6v3.3h1.2
		v1.1h-3.4v-1.1h0.9l0-4.6h-1v-1.1h2.2v0.9c0.1-0.1,0.2-0.3,0.3-0.4c0.1-0.1,0.2-0.2,0.3-0.3c0.1-0.1,0.3-0.2,0.4-0.2
		s0.3-0.1,0.5-0.1c0.2,0,0.4,0,0.7,0s0.4,0,0.6,0V47.2z"/>
	<path d="M84.8,49.3c0,0.2,0,0.4,0,0.5c0,0.2,0.1,0.3,0.1,0.5c0.2,0.4,0.4,0.8,0.8,1c0.4,0.2,0.8,0.3,1.2,0.3c0.4,0,0.7,0,1-0.1
		c0.3-0.1,0.7-0.3,1.1-0.5l0.5,0.8c-0.5,0.3-0.9,0.5-1.4,0.7s-0.9,0.2-1.4,0.2c-0.5,0-0.9-0.1-1.3-0.2c-0.4-0.2-0.7-0.4-1-0.7
		s-0.5-0.7-0.7-1.1s-0.2-1-0.2-1.6c0-0.5,0.1-1,0.2-1.4s0.3-0.8,0.6-1.1s0.6-0.6,1-0.8c0.4-0.2,0.9-0.3,1.4-0.3
		c0.5,0,0.9,0.1,1.3,0.2c0.3,0.2,0.6,0.4,0.8,0.6s0.4,0.6,0.5,0.9c0.1,0.3,0.2,0.7,0.2,1c0,0.2,0,0.3,0,0.5c0,0.2,0,0.3,0,0.5H84.8z
		 M86.7,46.6c-0.3,0-0.5,0-0.8,0.1s-0.4,0.2-0.5,0.4s-0.3,0.3-0.4,0.6c-0.1,0.2-0.2,0.5-0.2,0.7h3.6c0-0.3-0.1-0.5-0.1-0.7
		c-0.1-0.2-0.2-0.4-0.3-0.6c-0.1-0.2-0.3-0.3-0.5-0.4C87.3,46.6,87,46.6,86.7,46.6z"/>
	<path d="M96.8,52c-0.3,0.2-0.5,0.4-0.9,0.6c-0.3,0.2-0.7,0.2-1.1,0.2c-0.3,0-0.6-0.1-0.9-0.2s-0.5-0.3-0.7-0.4
		c-0.2-0.2-0.4-0.4-0.5-0.6s-0.2-0.5-0.2-0.8c0-0.3,0-0.5,0.1-0.8c0.1-0.2,0.2-0.4,0.3-0.6c0.1-0.2,0.3-0.3,0.5-0.4
		c0.2-0.1,0.4-0.2,0.6-0.3s0.4-0.1,0.6-0.1c0.2,0,0.4,0,0.6,0c0.3,0,0.6,0,0.8,0s0.4,0,0.6,0.1l0-0.6c0-0.2,0-0.5-0.1-0.6
		c-0.1-0.2-0.2-0.3-0.3-0.4s-0.3-0.2-0.5-0.3s-0.4-0.1-0.6-0.1c-0.2,0-0.4,0-0.6,0c-0.2,0-0.4,0.1-0.5,0.1c-0.2,0-0.3,0.1-0.5,0.2
		c-0.1,0.1-0.3,0.1-0.4,0.2L93,46.3c0.2-0.1,0.3-0.2,0.5-0.3s0.4-0.2,0.6-0.2s0.4-0.1,0.7-0.2c0.2,0,0.4-0.1,0.7-0.1
		c0.4,0,0.8,0,1.1,0.1c0.3,0.1,0.6,0.2,0.8,0.4c0.2,0.2,0.4,0.5,0.5,0.8C98,47.2,98,47.6,98,48l0,3.4h0.8v1.1h-2V52z M95.1,51.8
		c0.2,0,0.3,0,0.5-0.1c0.2,0,0.3-0.1,0.5-0.2c0.1-0.1,0.3-0.1,0.4-0.2c0.1-0.1,0.2-0.2,0.3-0.3l0-1.6h-1.4c-0.2,0-0.5,0-0.7,0.1
		c-0.2,0.1-0.4,0.1-0.5,0.2c-0.1,0.1-0.3,0.2-0.3,0.4c-0.1,0.2-0.1,0.3-0.1,0.5c0,0.2,0,0.3,0.1,0.5s0.2,0.2,0.3,0.3
		c0.1,0.1,0.3,0.2,0.4,0.2C94.7,51.7,94.9,51.8,95.1,51.8z"/>
	<path d="M105.6,42.3h2.2v9.2h1v1.1h-2.2V52c-0.2,0.2-0.5,0.4-0.8,0.5s-0.6,0.2-1,0.2c-0.5,0-0.9-0.1-1.3-0.2
		c-0.4-0.2-0.7-0.4-1-0.7s-0.5-0.7-0.7-1.1c-0.2-0.5-0.2-1-0.2-1.6c0-0.5,0.1-1,0.2-1.4c0.2-0.4,0.4-0.8,0.7-1.1
		c0.3-0.3,0.6-0.5,1.1-0.7s0.9-0.3,1.4-0.3c0.3,0,0.6,0,0.9,0.1c0.3,0.1,0.5,0.2,0.8,0.4v-2.6h-0.9V42.3z M104.9,51.7
		c0.4,0,0.7-0.1,0.9-0.2c0.2-0.1,0.5-0.3,0.7-0.5v-3.8c-0.2-0.2-0.5-0.3-0.8-0.4s-0.6-0.1-0.9-0.1c-0.3,0-0.6,0.1-0.8,0.2
		c-0.3,0.1-0.5,0.3-0.7,0.5c-0.2,0.2-0.3,0.5-0.5,0.8c-0.1,0.3-0.2,0.6-0.2,1c0,0.4,0.1,0.8,0.2,1.1c0.1,0.3,0.3,0.6,0.4,0.8
		c0.2,0.2,0.4,0.4,0.7,0.5C104.3,51.6,104.6,51.7,104.9,51.7z"/>
	<path d="M115.6,45.7h2.2v0.8h0c0.2-0.1,0.3-0.2,0.5-0.4c0.2-0.1,0.3-0.2,0.5-0.3c0.2-0.1,0.4-0.2,0.6-0.2s0.4-0.1,0.6-0.1
		c0.5,0,0.9,0.1,1.3,0.3c0.4,0.2,0.6,0.5,0.8,0.9c0.2-0.1,0.3-0.3,0.5-0.4c0.2-0.1,0.4-0.3,0.6-0.4s0.4-0.2,0.6-0.2
		c0.2-0.1,0.5-0.1,0.7-0.1c0.4,0,0.7,0.1,1,0.2c0.3,0.1,0.5,0.3,0.8,0.5c0.2,0.2,0.4,0.5,0.5,0.8c0.1,0.3,0.2,0.7,0.2,1.2v3.3h1v1.1
		h-3.2v-1.1h1v-3.1c0-0.5-0.1-0.9-0.4-1.2c-0.3-0.3-0.6-0.4-1.1-0.4c-0.3,0-0.6,0.1-0.9,0.2c-0.3,0.1-0.6,0.3-0.8,0.5v4h0.9v1.1
		h-3.2v-1.1h1v-3.1c0-0.5-0.1-0.9-0.4-1.2c-0.3-0.3-0.7-0.4-1.2-0.4c-0.3,0-0.6,0.1-0.9,0.2c-0.3,0.1-0.6,0.3-0.8,0.5v4h1v1.1h-3.2
		v-1.1h1v-4.6h-1V45.7z"/>
	<path d="M130.5,49.2c0-0.5,0.1-1,0.3-1.5c0.2-0.4,0.4-0.8,0.7-1.2c0.3-0.3,0.7-0.6,1.1-0.7c0.4-0.2,0.9-0.3,1.4-0.3
		c0.5,0,1,0.1,1.4,0.3c0.4,0.2,0.8,0.4,1.1,0.7c0.3,0.3,0.5,0.7,0.7,1.1s0.3,0.9,0.3,1.5c0,0.5-0.1,1-0.3,1.5
		c-0.2,0.4-0.4,0.8-0.7,1.2c-0.3,0.3-0.7,0.6-1.1,0.8c-0.4,0.2-0.9,0.3-1.4,0.3c-0.5,0-1-0.1-1.4-0.3c-0.4-0.2-0.8-0.4-1.1-0.7
		s-0.5-0.7-0.7-1.2S130.5,49.7,130.5,49.2z M131.8,49.2c0,0.4,0.1,0.7,0.2,1.1c0.1,0.3,0.3,0.6,0.5,0.8c0.2,0.2,0.4,0.4,0.7,0.5
		c0.3,0.1,0.5,0.2,0.8,0.2c0.3,0,0.6-0.1,0.9-0.2c0.3-0.1,0.5-0.3,0.7-0.5c0.2-0.2,0.3-0.5,0.5-0.8c0.1-0.3,0.2-0.7,0.2-1.1
		c0-0.4-0.1-0.8-0.2-1.1c-0.1-0.3-0.3-0.6-0.5-0.8c-0.2-0.2-0.4-0.4-0.7-0.5s-0.6-0.2-0.9-0.2c-0.3,0-0.6,0.1-0.8,0.2
		s-0.5,0.3-0.7,0.5c-0.2,0.2-0.4,0.5-0.5,0.8C131.8,48.4,131.8,48.8,131.8,49.2z"/>
	<path d="M144.6,51.5h1v-3.1c0-0.5-0.1-0.9-0.4-1.2c-0.3-0.3-0.7-0.4-1.2-0.4c-0.3,0-0.6,0.1-0.9,0.2c-0.3,0.1-0.6,0.3-0.8,0.5v4h1
		v1.1h-3.2v-1.1h1v-4.6h-1v-1.1h2.2v0.8h0c0.1-0.1,0.3-0.2,0.5-0.4c0.2-0.1,0.3-0.2,0.5-0.3s0.4-0.2,0.6-0.2c0.2,0,0.4-0.1,0.6-0.1
		c0.4,0,0.7,0.1,1,0.2c0.3,0.1,0.5,0.3,0.8,0.5s0.4,0.5,0.5,0.8c0.1,0.3,0.2,0.7,0.2,1.2v3.3h1v1.1h-3.2V51.5z"/>
	<path d="M150.4,45.7h2.2v5.7h1v1.1h-3.3v-1.1h1v-4.6h-1V45.7z M151.2,43.3c0-0.1,0-0.2,0.1-0.3c0-0.1,0.1-0.2,0.2-0.3
		s0.2-0.1,0.3-0.2c0.1,0,0.2-0.1,0.3-0.1c0.1,0,0.2,0,0.3,0.1c0.1,0,0.2,0.1,0.3,0.2c0.1,0.1,0.1,0.2,0.2,0.3c0,0.1,0.1,0.2,0.1,0.3
		c0,0.1,0,0.2-0.1,0.3c0,0.1-0.1,0.2-0.2,0.3c-0.1,0.1-0.2,0.1-0.3,0.2c-0.1,0-0.2,0.1-0.3,0.1c-0.1,0-0.2,0-0.3-0.1
		c-0.1,0-0.2-0.1-0.3-0.2s-0.1-0.2-0.2-0.3C151.2,43.5,151.2,43.4,151.2,43.3z"/>
	<path d="M158.2,45.7h1.6v1h-1.6l0,4c0,0.3,0,0.5,0.1,0.7c0.1,0.2,0.2,0.3,0.3,0.3c0.1,0.1,0.3,0.1,0.5,0.1c0.2,0,0.3,0,0.5,0
		c0.1,0,0.3-0.1,0.5-0.2l0.3,0.8c-0.2,0.1-0.4,0.2-0.7,0.3c-0.2,0.1-0.5,0.1-0.8,0.1c-0.3,0-0.6,0-0.8-0.1c-0.2-0.1-0.4-0.2-0.6-0.4
		c-0.2-0.2-0.3-0.4-0.3-0.7c-0.1-0.3-0.1-0.7-0.1-1.1l0-3.8h-1.1v-1h1.1v-1.6l1.2-0.6V45.7z"/>
	<path d="M162.5,49.2c0-0.5,0.1-1,0.3-1.5c0.2-0.4,0.4-0.8,0.7-1.2c0.3-0.3,0.7-0.6,1.1-0.7c0.4-0.2,0.9-0.3,1.4-0.3
		c0.5,0,1,0.1,1.4,0.3c0.4,0.2,0.8,0.4,1.1,0.7c0.3,0.3,0.5,0.7,0.7,1.1s0.3,0.9,0.3,1.5c0,0.5-0.1,1-0.3,1.5
		c-0.2,0.4-0.4,0.8-0.7,1.2c-0.3,0.3-0.7,0.6-1.1,0.8c-0.4,0.2-0.9,0.3-1.4,0.3c-0.5,0-1-0.1-1.4-0.3s-0.8-0.4-1.1-0.7
		s-0.5-0.7-0.7-1.2C162.6,50.2,162.5,49.7,162.5,49.2z M163.8,49.2c0,0.4,0.1,0.7,0.2,1.1c0.1,0.3,0.3,0.6,0.5,0.8
		c0.2,0.2,0.4,0.4,0.7,0.5c0.3,0.1,0.5,0.2,0.8,0.2c0.3,0,0.6-0.1,0.9-0.2c0.3-0.1,0.5-0.3,0.7-0.5c0.2-0.2,0.3-0.5,0.5-0.8
		c0.1-0.3,0.2-0.7,0.2-1.1c0-0.4-0.1-0.8-0.2-1.1c-0.1-0.3-0.3-0.6-0.5-0.8c-0.2-0.2-0.4-0.4-0.7-0.5c-0.3-0.1-0.6-0.2-0.9-0.2
		c-0.3,0-0.6,0.1-0.8,0.2s-0.5,0.3-0.7,0.5c-0.2,0.2-0.4,0.5-0.5,0.8C163.9,48.4,163.8,48.8,163.8,49.2z"/>
	<path d="M177,47.2h-1.3v-0.4c-0.1,0-0.3,0-0.4,0.1c-0.2,0.1-0.3,0.1-0.4,0.3c-0.1,0.1-0.2,0.3-0.3,0.4s-0.2,0.4-0.2,0.6v3.3h1.2
		v1.1h-3.4v-1.1h0.9l0-4.6h-1v-1.1h2.2v0.9c0.1-0.1,0.2-0.3,0.3-0.4c0.1-0.1,0.2-0.2,0.3-0.3c0.1-0.1,0.3-0.2,0.4-0.2
		c0.1-0.1,0.3-0.1,0.5-0.1c0.2,0,0.4,0,0.6,0s0.4,0,0.6,0V47.2z"/>
	<path d="M179.8,45.7h2.2v5.7h1v1.1h-3.3v-1.1h1v-4.6h-1V45.7z M180.5,43.3c0-0.1,0-0.2,0.1-0.3c0-0.1,0.1-0.2,0.2-0.3
		c0.1-0.1,0.2-0.1,0.3-0.2c0.1,0,0.2-0.1,0.3-0.1c0.1,0,0.2,0,0.3,0.1c0.1,0,0.2,0.1,0.3,0.2c0.1,0.1,0.1,0.2,0.2,0.3
		c0,0.1,0.1,0.2,0.1,0.3c0,0.1,0,0.2-0.1,0.3c0,0.1-0.1,0.2-0.2,0.3c-0.1,0.1-0.2,0.1-0.3,0.2c-0.1,0-0.2,0.1-0.3,0.1
		c-0.1,0-0.2,0-0.3-0.1c-0.1,0-0.2-0.1-0.3-0.2c-0.1-0.1-0.1-0.2-0.2-0.3C180.5,43.5,180.5,43.4,180.5,43.3z"/>
	<path d="M190,51.5h1v-3.1c0-0.5-0.1-0.9-0.4-1.2c-0.3-0.3-0.7-0.4-1.2-0.4c-0.3,0-0.6,0.1-0.9,0.2c-0.3,0.1-0.6,0.3-0.8,0.5v4h1
		v1.1h-3.2v-1.1h1v-4.6h-1v-1.1h2.2v0.8h0c0.1-0.1,0.3-0.2,0.5-0.4c0.2-0.1,0.3-0.2,0.5-0.3c0.2-0.1,0.4-0.2,0.6-0.2
		s0.4-0.1,0.6-0.1c0.4,0,0.7,0.1,1,0.2c0.3,0.1,0.5,0.3,0.8,0.5c0.2,0.2,0.4,0.5,0.5,0.8s0.2,0.7,0.2,1.2v3.3h1v1.1H190V51.5z"/>
	<path d="M201,52c-0.2,0.2-0.5,0.4-0.8,0.6c-0.3,0.1-0.6,0.2-1,0.2c-0.5,0-0.9-0.1-1.3-0.2c-0.4-0.2-0.7-0.4-1-0.7s-0.5-0.7-0.7-1.1
		s-0.2-1-0.2-1.6c0-0.5,0.1-1,0.2-1.4c0.2-0.4,0.4-0.8,0.7-1.1c0.3-0.3,0.6-0.5,1.1-0.7s0.9-0.3,1.4-0.3c0.3,0,0.7,0,0.9,0.1
		c0.3,0.1,0.5,0.2,0.8,0.4v-0.4h1.2v6.6c0,1.1-0.3,1.9-0.8,2.5c-0.5,0.6-1.3,0.8-2.4,0.8c-0.2,0-0.5,0-0.7-0.1
		c-0.3,0-0.5-0.1-0.8-0.2c-0.3-0.1-0.5-0.2-0.7-0.3c-0.2-0.1-0.5-0.3-0.7-0.4l0.7-1c0.1,0.1,0.3,0.2,0.5,0.3
		c0.2,0.1,0.4,0.2,0.5,0.2c0.2,0.1,0.4,0.1,0.6,0.2c0.2,0,0.4,0.1,0.6,0.1c0.3,0,0.6,0,0.9-0.1c0.2-0.1,0.5-0.2,0.6-0.4
		c0.2-0.2,0.3-0.4,0.4-0.7C200.9,53,201,52.6,201,52L201,52z M199.3,51.7c0.2,0,0.4,0,0.6-0.1s0.3-0.1,0.5-0.2
		c0.1-0.1,0.3-0.1,0.4-0.2c0.1-0.1,0.2-0.2,0.3-0.3v-3.8c-0.2-0.2-0.5-0.3-0.8-0.4c-0.3-0.1-0.6-0.1-0.9-0.1c-0.3,0-0.6,0.1-0.8,0.2
		c-0.3,0.1-0.5,0.3-0.7,0.5c-0.2,0.2-0.3,0.5-0.5,0.8c-0.1,0.3-0.2,0.6-0.2,1c0,0.4,0.1,0.8,0.2,1.1c0.1,0.3,0.3,0.6,0.4,0.8
		c0.2,0.2,0.4,0.4,0.7,0.5C198.7,51.6,199,51.7,199.3,51.7z"/>
	<path d="M213.6,52c-0.3,0.2-0.5,0.4-0.9,0.6c-0.3,0.2-0.7,0.2-1.1,0.2c-0.3,0-0.6-0.1-0.9-0.2c-0.3-0.1-0.5-0.3-0.7-0.4
		s-0.4-0.4-0.5-0.6c-0.1-0.2-0.2-0.5-0.2-0.8c0-0.3,0-0.5,0.1-0.8s0.2-0.4,0.3-0.6s0.3-0.3,0.5-0.4c0.2-0.1,0.4-0.2,0.6-0.3
		s0.4-0.1,0.6-0.1c0.2,0,0.4,0,0.6,0c0.3,0,0.6,0,0.8,0c0.2,0,0.4,0,0.6,0.1l0-0.6c0-0.2,0-0.5-0.1-0.6c-0.1-0.2-0.2-0.3-0.3-0.4
		c-0.1-0.1-0.3-0.2-0.5-0.3c-0.2-0.1-0.4-0.1-0.6-0.1c-0.2,0-0.4,0-0.6,0c-0.2,0-0.4,0.1-0.5,0.1c-0.2,0-0.3,0.1-0.5,0.2
		s-0.3,0.1-0.4,0.2l-0.4-0.9c0.2-0.1,0.3-0.2,0.5-0.3c0.2-0.1,0.4-0.2,0.6-0.2c0.2-0.1,0.4-0.1,0.7-0.2c0.2,0,0.4-0.1,0.7-0.1
		c0.4,0,0.8,0,1.1,0.1c0.3,0.1,0.6,0.2,0.8,0.4c0.2,0.2,0.4,0.5,0.5,0.8c0.1,0.3,0.2,0.7,0.2,1.1l0,3.4h0.8v1.1h-2V52z M211.9,51.8
		c0.2,0,0.3,0,0.5-0.1c0.2,0,0.3-0.1,0.5-0.2s0.3-0.1,0.4-0.2s0.2-0.2,0.3-0.3l0-1.6h-1.4c-0.2,0-0.5,0-0.7,0.1
		c-0.2,0.1-0.4,0.1-0.5,0.2c-0.1,0.1-0.3,0.2-0.3,0.4c-0.1,0.2-0.1,0.3-0.1,0.5c0,0.2,0,0.3,0.1,0.5s0.2,0.2,0.3,0.3
		s0.3,0.2,0.4,0.2C211.6,51.7,211.7,51.8,211.9,51.8z"/>
	<path d="M222.9,51.5h1v-3.1c0-0.5-0.1-0.9-0.4-1.2c-0.3-0.3-0.7-0.4-1.2-0.4c-0.3,0-0.6,0.1-0.9,0.2c-0.3,0.1-0.6,0.3-0.8,0.5v4h1
		v1.1h-3.2v-1.1h1v-4.6h-1v-1.1h2.2v0.8h0c0.1-0.1,0.3-0.2,0.5-0.4c0.2-0.1,0.3-0.2,0.5-0.3s0.4-0.2,0.6-0.2c0.2,0,0.4-0.1,0.6-0.1
		c0.4,0,0.7,0.1,1,0.2c0.3,0.1,0.5,0.3,0.8,0.5s0.4,0.5,0.5,0.8c0.1,0.3,0.2,0.7,0.2,1.2v3.3h1v1.1h-3.2V51.5z"/>
	<path d="M232.8,42.3h2.2v9.2h1v1.1h-2.2V52c-0.2,0.2-0.5,0.4-0.8,0.5c-0.3,0.1-0.6,0.2-1,0.2c-0.5,0-0.9-0.1-1.3-0.2
		c-0.4-0.2-0.7-0.4-1-0.7c-0.3-0.3-0.5-0.7-0.7-1.1c-0.2-0.5-0.2-1-0.2-1.6c0-0.5,0.1-1,0.2-1.4s0.4-0.8,0.7-1.1
		c0.3-0.3,0.6-0.5,1.1-0.7c0.4-0.2,0.9-0.3,1.4-0.3c0.3,0,0.6,0,0.9,0.1c0.3,0.1,0.5,0.2,0.8,0.4v-2.6h-0.9V42.3z M232.2,51.7
		c0.4,0,0.7-0.1,0.9-0.2s0.5-0.3,0.7-0.5v-3.8c-0.2-0.2-0.5-0.3-0.8-0.4s-0.6-0.1-0.9-0.1c-0.3,0-0.6,0.1-0.8,0.2
		c-0.3,0.1-0.5,0.3-0.7,0.5s-0.3,0.5-0.5,0.8s-0.2,0.6-0.2,1c0,0.4,0.1,0.8,0.2,1.1c0.1,0.3,0.3,0.6,0.4,0.8
		c0.2,0.2,0.4,0.4,0.7,0.5C231.6,51.6,231.9,51.7,232.2,51.7z"/>
	<path d="M246.9,52c-0.3,0.2-0.5,0.4-0.9,0.6c-0.3,0.2-0.7,0.2-1.1,0.2c-0.3,0-0.6-0.1-0.9-0.2s-0.5-0.3-0.7-0.4
		c-0.2-0.2-0.4-0.4-0.5-0.6s-0.2-0.5-0.2-0.8c0-0.3,0-0.5,0.1-0.8c0.1-0.2,0.2-0.4,0.3-0.6c0.1-0.2,0.3-0.3,0.5-0.4
		c0.2-0.1,0.4-0.2,0.6-0.3s0.4-0.1,0.6-0.1c0.2,0,0.4,0,0.6,0c0.3,0,0.6,0,0.8,0s0.4,0,0.6,0.1l0-0.6c0-0.2,0-0.5-0.1-0.6
		c-0.1-0.2-0.2-0.3-0.3-0.4s-0.3-0.2-0.5-0.3s-0.4-0.1-0.6-0.1c-0.2,0-0.4,0-0.6,0c-0.2,0-0.4,0.1-0.5,0.1c-0.2,0-0.3,0.1-0.5,0.2
		c-0.1,0.1-0.3,0.1-0.4,0.2l-0.4-0.9c0.2-0.1,0.3-0.2,0.5-0.3s0.4-0.2,0.6-0.2s0.4-0.1,0.7-0.2c0.2,0,0.4-0.1,0.7-0.1
		c0.4,0,0.8,0,1.1,0.1c0.3,0.1,0.6,0.2,0.8,0.4c0.2,0.2,0.4,0.5,0.5,0.8c0.1,0.3,0.2,0.7,0.2,1.1l0,3.4h0.8v1.1h-2V52z M245.2,51.8
		c0.2,0,0.3,0,0.5-0.1c0.2,0,0.3-0.1,0.5-0.2c0.1-0.1,0.3-0.1,0.4-0.2c0.1-0.1,0.2-0.2,0.3-0.3l0-1.6h-1.4c-0.2,0-0.5,0-0.7,0.1
		c-0.2,0.1-0.4,0.1-0.5,0.2c-0.1,0.1-0.3,0.2-0.3,0.4c-0.1,0.2-0.1,0.3-0.1,0.5c0,0.2,0,0.3,0.1,0.5s0.2,0.2,0.3,0.3
		c0.1,0.1,0.3,0.2,0.4,0.2C244.9,51.7,245,51.8,245.2,51.8z"/>
	<path d="M251.6,42.3h2.2v9.2h1v1.1h-3.3v-1.1h1v-8h-1V42.3z"/>
	<path d="M258.6,49.3c0,0.2,0,0.4,0,0.5c0,0.2,0.1,0.3,0.1,0.5c0.2,0.4,0.4,0.8,0.8,1c0.4,0.2,0.8,0.3,1.2,0.3c0.4,0,0.7,0,1-0.1
		c0.3-0.1,0.7-0.3,1.1-0.5l0.5,0.8c-0.5,0.3-0.9,0.5-1.4,0.7s-0.9,0.2-1.4,0.2c-0.5,0-0.9-0.1-1.3-0.2c-0.4-0.2-0.7-0.4-1-0.7
		s-0.5-0.7-0.7-1.1c-0.2-0.5-0.2-1-0.2-1.6c0-0.5,0.1-1,0.2-1.4c0.1-0.4,0.3-0.8,0.6-1.1c0.3-0.3,0.6-0.6,1-0.8
		c0.4-0.2,0.9-0.3,1.4-0.3c0.5,0,0.9,0.1,1.3,0.2c0.3,0.2,0.6,0.4,0.8,0.6s0.4,0.6,0.5,0.9c0.1,0.3,0.2,0.7,0.2,1c0,0.2,0,0.3,0,0.5
		c0,0.2,0,0.3,0,0.5H258.6z M260.5,46.6c-0.3,0-0.5,0-0.8,0.1c-0.2,0.1-0.4,0.2-0.5,0.4s-0.3,0.3-0.4,0.6c-0.1,0.2-0.2,0.5-0.2,0.7
		h3.6c0-0.3-0.1-0.5-0.1-0.7c-0.1-0.2-0.2-0.4-0.3-0.6c-0.1-0.2-0.3-0.3-0.5-0.4C261.1,46.6,260.8,46.6,260.5,46.6z"/>
	<path d="M271.5,47.2h-1.3v-0.4c-0.1,0-0.3,0-0.4,0.1c-0.2,0.1-0.3,0.1-0.4,0.3c-0.1,0.1-0.2,0.3-0.3,0.4s-0.2,0.4-0.2,0.6v3.3h1.2
		v1.1h-3.4v-1.1h0.9l0-4.6h-1v-1.1h2.2v0.9c0.1-0.1,0.2-0.3,0.3-0.4c0.1-0.1,0.2-0.2,0.3-0.3c0.1-0.1,0.3-0.2,0.4-0.2
		s0.3-0.1,0.5-0.1c0.2,0,0.4,0,0.7,0s0.4,0,0.6,0V47.2z"/>
	<path d="M276.3,45.7h1.6v1h-1.6l0,4c0,0.3,0,0.5,0.1,0.7c0.1,0.2,0.2,0.3,0.3,0.3c0.1,0.1,0.3,0.1,0.5,0.1c0.2,0,0.3,0,0.5,0
		c0.1,0,0.3-0.1,0.5-0.2l0.3,0.8c-0.2,0.1-0.4,0.2-0.7,0.3c-0.2,0.1-0.5,0.1-0.8,0.1c-0.3,0-0.6,0-0.8-0.1c-0.2-0.1-0.4-0.2-0.6-0.4
		c-0.2-0.2-0.3-0.4-0.3-0.7c-0.1-0.3-0.1-0.7-0.1-1.1l0-3.8H274v-1h1.1v-1.6l1.2-0.6V45.7z"/>
	<path d="M284.6,47.1c-0.1-0.1-0.2-0.2-0.3-0.3c-0.1-0.1-0.3-0.1-0.5-0.2c-0.2,0-0.3-0.1-0.5-0.1c-0.2,0-0.3,0-0.5,0.1
		c-0.1,0-0.3,0.1-0.4,0.2c-0.1,0.1-0.2,0.2-0.2,0.3s-0.1,0.2-0.1,0.4c0,0.2,0.1,0.4,0.2,0.5c0.1,0.1,0.4,0.3,0.7,0.4l1.3,0.5
		c0.6,0.2,1,0.4,1.2,0.8c0.3,0.3,0.4,0.7,0.4,1.2c0,0.3-0.1,0.6-0.2,0.8c-0.1,0.3-0.3,0.5-0.5,0.7s-0.5,0.3-0.8,0.4s-0.7,0.1-1,0.1
		c-0.5,0-1-0.1-1.3-0.3c-0.3-0.2-0.6-0.4-0.8-0.7h-0.7v-1.1h1.4c0,0.2,0,0.4,0.1,0.5c0.1,0.1,0.2,0.2,0.3,0.3s0.3,0.1,0.5,0.2
		c0.2,0,0.3,0.1,0.5,0.1c0.2,0,0.3,0,0.5-0.1c0.2,0,0.3-0.1,0.4-0.2c0.1-0.1,0.2-0.2,0.3-0.3s0.1-0.2,0.1-0.4c0-0.2-0.1-0.4-0.2-0.6
		c-0.1-0.2-0.4-0.3-0.7-0.4l-1.3-0.5c-0.5-0.2-0.9-0.4-1.2-0.7c-0.3-0.3-0.4-0.7-0.4-1.1c0-0.3,0.1-0.6,0.2-0.8
		c0.1-0.2,0.3-0.5,0.5-0.6c0.2-0.2,0.5-0.3,0.8-0.4c0.3-0.1,0.6-0.2,1-0.2c0.5,0,0.9,0.1,1.2,0.2c0.3,0.1,0.6,0.4,0.9,0.7h0.6v1.1
		h-1.4C284.7,47.4,284.6,47.2,284.6,47.1z"/>
	<path d="M288.6,51.8c0-0.1,0-0.2,0.1-0.3c0-0.1,0.1-0.2,0.2-0.3s0.2-0.1,0.3-0.2c0.1,0,0.2-0.1,0.3-0.1c0.1,0,0.2,0,0.3,0.1
		c0.1,0,0.2,0.1,0.3,0.2c0.1,0.1,0.1,0.2,0.2,0.3c0,0.1,0.1,0.2,0.1,0.3c0,0.1,0,0.2-0.1,0.3c0,0.1-0.1,0.2-0.2,0.3
		c-0.1,0.1-0.2,0.1-0.3,0.2c-0.1,0-0.2,0.1-0.3,0.1c-0.1,0-0.2,0-0.3-0.1c-0.1,0-0.2-0.1-0.3-0.2c-0.1-0.1-0.1-0.2-0.2-0.3
		C288.7,52,288.6,51.9,288.6,51.8z"/>
</g>
</svg>
